<?xml version="1.0" encoding="utf-8"?>
<svg viewBox="0 0 500 500" style="shape-rendering: geometricprecision;" xmlns="http://www.w3.org/2000/svg">
  <g id="Слой_x0020_1" transform="matrix(1, 0, 0, 1, -5850.077148, 9598.53125)">
    <g id="_732938945312">
      <path class="fil0" d="M 6280.647 -9327.033 C 6280.647 -9321.21 6280.005 -9317.543 6277.489 -9313.119 C 6275.809 -9310.208 6273.49 -9307.704 6270.725 -9306.074 C 6267.418 -9304.095 6263.024 -9304.677 6259.124 -9304.677 C 6203.737 -9304.386 6148.35 -9304.095 6093.013 -9303.804 C 6091.631 -9300.718 6088.669 -9295.071 6087.089 -9292.277 C 6086.645 -9291.462 6086.3 -9290.821 6085.855 -9290.006 C 6081.708 -9282.554 6077.513 -9275.161 6072.725 -9268.407 L 6070.503 -9265.438 C 6068.874 -9263.11 6066.998 -9260.898 6065.171 -9258.744 L 6053.077 -9246.983 L 6045.376 -9241.046 L 6265.641 -9242.151 C 6274.329 -9242.151 6282.029 -9242.151 6290.027 -9245.994 L 6293.927 -9247.857 C 6297.579 -9249.662 6301.036 -9252.514 6304.194 -9255.308 C 6304.688 -9255.775 6305.181 -9256.123 6305.675 -9256.647 L 6314.709 -9267.185 C 6317.523 -9271.143 6319.843 -9275.219 6322.064 -9279.644 C 6327.84 -9290.938 6331.69 -9306.947 6331.641 -9320.221 C 6331.542 -9350.378 6317.078 -9380.709 6292.002 -9391.304 C 6288.052 -9392.934 6283.856 -9394.39 6279.611 -9394.798 C 6275.809 -9395.147 6272.205 -9395.263 6268.256 -9395.263 L 6175.452 -9394.798 C 6170.466 -9394.798 6167.652 -9396.02 6165.036 -9400.736 C 6164.098 -9402.482 6163.308 -9404.811 6162.716 -9407.081 C 6162.025 -9409.817 6161.827 -9413.369 6161.827 -9416.629 L 6098.246 -9416.338 C 6098.689 -9410.574 6099.628 -9405.276 6100.566 -9400.095 C 6101.059 -9397.533 6101.75 -9395.088 6102.392 -9392.759 C 6103.725 -9388.16 6105.453 -9383.794 6107.476 -9379.544 C 6107.971 -9378.497 6108.415 -9377.682 6108.958 -9376.692 L 6112.314 -9371.161 C 6115.029 -9367.261 6117.991 -9363.477 6121.447 -9360.449 C 6121.94 -9360.042 6122.138 -9359.809 6122.632 -9359.401 L 6131.271 -9353.055 C 6137.787 -9349.213 6143.808 -9346.186 6151.856 -9346.244 L 6264.999 -9346.826 C 6267.96 -9346.826 6269.59 -9346.302 6271.466 -9345.021 C 6272.305 -9344.382 6273.094 -9343.799 6273.835 -9342.984 C 6276.056 -9340.713 6277.883 -9338.21 6279.067 -9334.834 C 6279.759 -9332.738 6280.598 -9330.06 6280.647 -9327.033 Z" style="fill: rgb(0, 132, 145);"/>
      <path class="fil0" d="M 6023.656 -9366.213 C 6023.706 -9358.994 6021.928 -9352.59 6019.707 -9346.942 C 6015.362 -9336.056 6008.995 -9327.847 6001.441 -9320.57 C 5997.887 -9317.194 5993.494 -9313.992 5988.607 -9311.488 C 5976.76 -9305.376 5966.097 -9306.307 5952.324 -9306.191 C 5938.699 -9306.074 5925.075 -9306.016 5911.45 -9305.899 L 5868.108 -9241.046 C 5871.219 -9240.754 5887.755 -9241.104 5892.346 -9241.161 L 5977.698 -9241.744 C 5990.582 -9241.861 5997.098 -9242.093 6009.932 -9247.1 C 6022.915 -9252.223 6037.478 -9262.411 6046.66 -9272.133 C 6047.203 -9272.774 6047.696 -9273.298 6048.289 -9273.88 L 6051.448 -9277.315 C 6052.583 -9278.479 6053.521 -9279.527 6054.558 -9280.75 C 6055.594 -9282.031 6056.483 -9283.136 6057.47 -9284.476 L 6060.334 -9288.26 C 6061.272 -9289.599 6062.209 -9290.763 6063.098 -9292.16 C 6064.085 -9293.558 6064.876 -9294.78 6065.813 -9296.294 C 6072.527 -9306.773 6078.401 -9318.94 6082.597 -9334.019 C 6087.583 -9352.125 6087.928 -9366.329 6087.83 -9385.25 C 6087.731 -9404.403 6087.435 -9423.673 6087.534 -9442.827 C 6089.261 -9443.118 6123.076 -9443.118 6125.791 -9443.175 C 6181.178 -9443.525 6274.082 -9443.7 6329.173 -9445.796 C 6322.311 -9454.877 6297.481 -9501.393 6292.347 -9508.729 L 6022.915 -9508.787 L 6023.656 -9366.213 Z" style="fill: rgb(0, 132, 145);"/>
      <path class="fil1" d="M 5887.267 -9173.105 L 5862.486 -9173.105 L 5862.486 -9182.129 L 5869.1 -9182.129 L 5869.1 -9215.721 L 5862.486 -9215.721 L 5862.486 -9224.745 L 5887.267 -9224.745 L 5887.267 -9215.721 L 5880.652 -9215.721 L 5880.652 -9182.129 L 5887.267 -9182.129 L 5887.267 -9173.105 Z M 5934.213 -9173.105 L 5923.105 -9173.105 L 5905.383 -9209.142 L 5905.383 -9173.105 L 5894.869 -9173.105 L 5894.869 -9224.745 L 5908.987 -9224.745 L 5923.648 -9195.17 L 5923.648 -9224.745 L 5934.213 -9224.745 L 5934.213 -9173.105 Z M 5982.787 -9173.105 L 5971.68 -9173.105 L 5953.958 -9209.142 L 5953.958 -9173.105 L 5943.443 -9173.105 L 5943.443 -9224.745 L 5957.562 -9224.745 L 5972.272 -9195.17 L 5972.272 -9224.745 L 5982.787 -9224.745 L 5982.787 -9173.105 Z M 6033.78 -9198.896 C 6033.78 -9190.571 6031.806 -9183.992 6027.807 -9179.218 C 6023.858 -9174.444 6018.429 -9172 6011.567 -9172 C 6004.656 -9172 5999.225 -9174.444 5995.276 -9179.277 C 5991.327 -9184.167 5989.353 -9190.687 5989.353 -9198.896 C 5989.353 -9207.221 5991.327 -9213.8 5995.276 -9218.574 C 5999.225 -9223.405 6004.656 -9225.85 6011.567 -9225.85 C 6018.429 -9225.85 6023.858 -9223.405 6027.807 -9218.632 C 6031.806 -9213.858 6033.78 -9207.279 6033.78 -9198.896 Z M 6021.883 -9198.954 C 6021.883 -9202.039 6021.637 -9204.659 6021.044 -9206.814 C 6020.502 -9208.968 6019.761 -9210.772 6018.774 -9212.112 C 6017.787 -9213.567 6016.7 -9214.557 6015.467 -9215.197 C 6014.183 -9215.779 6012.9 -9216.071 6011.567 -9216.071 C 6010.184 -9216.071 6008.851 -9215.838 6007.717 -9215.255 C 6006.581 -9214.673 6005.445 -9213.684 6004.409 -9212.228 C 6003.471 -9210.889 6002.681 -9209.085 6002.089 -9206.872 C 6001.496 -9204.659 6001.2 -9201.982 6001.2 -9198.896 C 6001.2 -9195.752 6001.496 -9193.132 6002.039 -9191.037 C 6002.632 -9188.941 6003.372 -9187.195 6004.309 -9185.739 C 6005.297 -9184.342 6006.433 -9183.294 6007.717 -9182.712 C 6008.95 -9182.071 6010.233 -9181.78 6011.567 -9181.78 C 6012.949 -9181.78 6014.232 -9182.071 6015.516 -9182.77 C 6016.799 -9183.41 6017.885 -9184.458 6018.823 -9185.856 C 6019.81 -9187.311 6020.551 -9189.058 6021.094 -9191.094 C 6021.637 -9193.074 6021.883 -9195.694 6021.883 -9198.954 Z M 6078.9 -9224.745 L 6063.152 -9173.105 L 6051.108 -9173.105 L 6035.36 -9224.745 L 6047.257 -9224.745 L 6057.278 -9189.756 L 6067.25 -9224.745 L 6078.9 -9224.745 Z M 6078.209 -9173.105 L 6093.709 -9224.745 L 6106.297 -9224.745 L 6121.797 -9173.105 L 6109.95 -9173.105 L 6107.087 -9183.527 L 6092.574 -9183.527 L 6089.71 -9173.105 L 6078.209 -9173.105 Z M 6104.52 -9193.016 L 6099.831 -9210.132 L 6095.091 -9193.016 L 6104.52 -9193.016 Z M 6135.126 -9173.105 L 6135.126 -9214.906 L 6121.55 -9214.906 L 6121.55 -9224.745 L 6160.203 -9224.745 L 6160.203 -9214.906 L 6146.628 -9214.906 L 6146.628 -9173.105 L 6135.126 -9173.105 Z M 6187.798 -9173.105 L 6163.016 -9173.105 L 6163.016 -9182.129 L 6169.632 -9182.129 L 6169.632 -9215.721 L 6163.016 -9215.721 L 6163.016 -9224.745 L 6187.798 -9224.745 L 6187.798 -9215.721 L 6181.183 -9215.721 L 6181.183 -9182.129 L 6187.798 -9182.129 L 6187.798 -9173.105 Z M 6237.113 -9198.896 C 6237.113 -9190.571 6235.138 -9183.992 6231.189 -9179.218 C 6227.24 -9174.444 6221.809 -9172 6214.899 -9172 C 6207.988 -9172 6202.558 -9174.444 6198.609 -9179.277 C 6194.709 -9184.167 6192.734 -9190.687 6192.734 -9198.896 C 6192.734 -9207.221 6194.709 -9213.8 6198.609 -9218.574 C 6202.558 -9223.405 6207.988 -9225.85 6214.899 -9225.85 C 6221.809 -9225.85 6227.24 -9223.405 6231.189 -9218.632 C 6235.138 -9213.858 6237.113 -9207.279 6237.113 -9198.896 Z M 6225.266 -9198.954 C 6225.266 -9202.039 6224.97 -9204.659 6224.426 -9206.814 C 6223.833 -9208.968 6223.094 -9210.772 6222.155 -9212.112 C 6221.168 -9213.567 6220.033 -9214.557 6218.798 -9215.197 C 6217.564 -9215.779 6216.281 -9216.071 6214.948 -9216.071 C 6213.517 -9216.071 6212.233 -9215.838 6211.097 -9215.255 C 6209.913 -9214.673 6208.827 -9213.684 6207.741 -9212.228 C 6206.803 -9210.889 6206.062 -9209.085 6205.47 -9206.872 C 6204.878 -9204.659 6204.582 -9201.982 6204.582 -9198.896 C 6204.582 -9195.752 6204.828 -9193.132 6205.421 -9191.037 C 6205.964 -9188.941 6206.704 -9187.195 6207.692 -9185.739 C 6208.679 -9184.342 6209.814 -9183.294 6211.048 -9182.712 C 6212.283 -9182.071 6213.615 -9181.78 6214.948 -9181.78 C 6216.281 -9181.78 6217.614 -9182.071 6218.897 -9182.77 C 6220.132 -9183.41 6221.268 -9184.458 6222.205 -9185.856 C 6223.192 -9187.311 6223.932 -9189.058 6224.475 -9191.094 C 6225.019 -9193.074 6225.266 -9195.694 6225.266 -9198.954 Z M 6283.269 -9173.105 L 6272.212 -9173.105 L 6254.44 -9209.142 L 6254.44 -9173.105 L 6243.925 -9173.105 L 6243.925 -9224.745 L 6258.092 -9224.745 L 6272.754 -9195.17 L 6272.754 -9224.745 L 6283.269 -9224.745 L 6283.269 -9173.105 Z M 6306.667 -9172.174 C 6303.212 -9172.174 6300.102 -9172.524 6297.436 -9173.339 C 6294.771 -9174.096 6292.351 -9175.027 6290.032 -9176.133 L 6290.032 -9188.417 L 6291.118 -9188.417 C 6293.388 -9186.263 6295.906 -9184.574 6298.671 -9183.41 C 6301.435 -9182.187 6304.149 -9181.605 6306.717 -9181.605 C 6307.408 -9181.605 6308.247 -9181.722 6309.333 -9181.839 C 6310.42 -9182.013 6311.259 -9182.246 6311.9 -9182.653 C 6312.69 -9183.002 6313.382 -9183.585 6313.923 -9184.284 C 6314.516 -9184.982 6314.763 -9185.913 6314.763 -9187.02 C 6314.763 -9188.358 6314.319 -9189.406 6313.431 -9190.222 C 6312.542 -9191.037 6311.456 -9191.619 6310.172 -9191.968 C 6308.642 -9192.434 6306.963 -9192.9 6305.186 -9193.307 C 6303.41 -9193.715 6301.78 -9194.239 6300.25 -9194.821 C 6296.696 -9196.218 6294.129 -9198.14 6292.599 -9200.526 C 6291.068 -9202.913 6290.328 -9205.882 6290.328 -9209.433 C 6290.328 -9214.323 6292.105 -9218.224 6295.758 -9221.193 C 6299.361 -9224.221 6303.903 -9225.675 6309.333 -9225.675 C 6312.097 -9225.675 6314.812 -9225.386 6317.478 -9224.745 C 6320.194 -9224.104 6322.612 -9223.289 6324.734 -9222.241 L 6324.734 -9210.423 L 6323.747 -9210.423 C 6322.02 -9212.053 6319.946 -9213.392 6317.527 -9214.557 C 6315.059 -9215.662 6312.542 -9216.245 6309.974 -9216.245 C 6308.938 -9216.245 6308.049 -9216.128 6307.26 -9216.012 C 6306.47 -9215.838 6305.631 -9215.546 6304.742 -9215.081 C 6304.002 -9214.731 6303.41 -9214.148 6302.866 -9213.45 C 6302.373 -9212.694 6302.076 -9211.937 6302.076 -9211.005 C 6302.076 -9209.725 6302.521 -9208.676 6303.36 -9207.861 C 6304.149 -9207.104 6305.779 -9206.406 6308.148 -9205.766 C 6309.678 -9205.358 6311.16 -9205.009 6312.591 -9204.659 C 6314.023 -9204.252 6315.553 -9203.786 6317.133 -9203.088 C 6320.342 -9201.807 6322.71 -9200.06 6324.241 -9197.906 C 6325.771 -9195.694 6326.561 -9192.842 6326.561 -9189.232 C 6326.561 -9184.109 6324.784 -9179.975 6321.181 -9176.831 C 6317.627 -9173.746 6312.789 -9172.174 6306.667 -9172.174 Z" style="fill: rgb(0, 132, 145); fill-rule: nonzero;"/>
    </g>
  </g>
</svg>